<svg width="11" height="11" viewBox="0 0 11 11" fill="none" xmlns="http://www.w3.org/2000/svg">
    <path fill-rule="evenodd" clip-rule="evenodd" d="M5.64203 1.66504C6.0081 1.66504 6.30486 1.9618 6.30486 2.32787V4.78982C6.30486 5.57426 5.66895 6.21018 4.88451 6.21018H2.23318C1.8671 6.21018 1.57034 5.91342 1.57034 5.54735C1.57034 5.18127 1.8671 4.88451 2.23318 4.88451H4.88451C4.9368 4.88451 4.9792 4.84212 4.9792 4.78982V2.32787C4.9792 1.9618 5.27596 1.66504 5.64203 1.66504Z" fill="#FF8F57"/>
    <path fill-rule="evenodd" clip-rule="evenodd" d="M5.358 9.33496C4.99193 9.33496 4.69517 9.0382 4.69517 8.67213L4.69517 6.21018C4.69517 5.42574 5.33108 4.78982 6.11552 4.78982L8.76686 4.78982C9.13293 4.78982 9.42969 5.08658 9.42969 5.45265C9.42969 5.81873 9.13293 6.11549 8.76686 6.11549L6.11552 6.11549C6.06323 6.11549 6.02083 6.15788 6.02083 6.21018L6.02083 8.67213C6.02083 9.0382 5.72407 9.33496 5.358 9.33496Z" fill="#B80000"/>
</svg>
