<svg width="906" height="256" viewBox="0 0 906 256" fill="none" xmlns="http://www.w3.org/2000/svg">
<path d="M110.88 180.516C103.488 180.516 96.576 179.22 90.144 176.628C83.712 173.94 78.048 170.244 73.152 165.54C68.352 160.74 64.608 155.172 61.92 148.836C59.232 142.404 57.888 135.492 57.888 128.1C57.888 120.708 59.232 113.844 61.92 107.508C64.608 101.076 68.352 95.508 73.152 90.804C78.048 86.004 83.712 82.308 90.144 79.716C96.576 77.028 103.488 75.684 110.88 75.684C118.176 75.684 125.04 76.932 131.472 79.428C138 81.828 143.664 85.38 148.464 90.084C153.264 94.692 156.768 100.308 158.976 106.932C159.168 107.604 159.216 108.228 159.12 108.804C159.024 109.38 158.448 109.812 157.392 110.1L142.992 113.7C141.936 113.892 141.168 113.748 140.688 113.268C140.304 112.692 140.016 112.164 139.824 111.684C137.232 106.404 133.536 102.084 128.736 98.724C123.936 95.268 118.032 93.54 111.024 93.54C104.688 93.54 99.024 95.076 94.032 98.148C89.04 101.22 85.104 105.348 82.224 110.532C79.44 115.716 78.048 121.572 78.048 128.1C78.048 134.532 79.44 140.388 82.224 145.668C85.104 150.852 89.04 154.98 94.032 158.052C99.024 161.124 104.688 162.66 111.024 162.66C118.032 162.66 123.936 160.98 128.736 157.62C133.536 154.164 137.232 149.796 139.824 144.516C140.016 144.036 140.304 143.556 140.688 143.076C141.168 142.5 141.936 142.308 142.992 142.5L157.392 146.1C158.448 146.388 159.024 146.82 159.12 147.396C159.216 147.972 159.168 148.596 158.976 149.268C156.768 155.796 153.264 161.412 148.464 166.116C143.664 170.82 138 174.42 131.472 176.916C125.04 179.316 118.176 180.516 110.88 180.516ZM185.355 178.5C179.211 178.5 174.699 176.964 171.819 173.892C168.939 170.724 167.499 166.5 167.499 161.22V80.724C167.499 79.956 167.787 79.284 168.363 78.708C168.939 78.036 169.659 77.7 170.523 77.7H183.051C183.915 77.7 184.635 78.036 185.211 78.708C185.787 79.284 186.075 79.956 186.075 80.724V157.62C186.075 159.252 186.507 160.596 187.371 161.652C188.235 162.612 189.531 163.092 191.259 163.092H195.435C196.203 163.092 196.875 163.284 197.451 163.668C198.027 164.052 198.315 164.772 198.315 165.828V174.9C198.315 176.436 197.883 177.444 197.019 177.924C196.155 178.308 195.339 178.5 194.571 178.5H185.355ZM202.437 143.94C202.437 137.028 204.117 130.788 207.477 125.22C210.837 119.652 215.301 115.236 220.869 111.972C226.533 108.708 232.821 107.076 239.733 107.076C246.645 107.076 252.933 108.708 258.597 111.972C264.261 115.236 268.725 119.652 271.989 125.22C275.349 130.788 277.029 137.028 277.029 143.94C277.029 150.756 275.349 156.948 271.989 162.516C268.725 168.084 264.261 172.5 258.597 175.764C252.933 178.932 246.645 180.516 239.733 180.516C232.821 180.516 226.533 178.932 220.869 175.764C215.301 172.5 210.837 168.084 207.477 162.516C204.117 156.948 202.437 150.756 202.437 143.94ZM221.157 143.796C221.157 147.348 221.973 150.612 223.605 153.588C225.237 156.564 227.445 158.916 230.229 160.644C233.013 162.372 236.181 163.236 239.733 163.236C243.285 163.236 246.453 162.372 249.237 160.644C252.021 158.916 254.229 156.564 255.861 153.588C257.493 150.612 258.309 147.348 258.309 143.796C258.309 140.148 257.493 136.884 255.861 134.004C254.229 131.028 252.021 128.676 249.237 126.948C246.453 125.22 243.285 124.356 239.733 124.356C236.181 124.356 233.013 125.22 230.229 126.948C227.445 128.676 225.237 131.028 223.605 134.004C221.973 136.884 221.157 140.148 221.157 143.796ZM314.39 107.076C321.014 107.076 326.582 108.084 331.094 110.1C335.702 112.02 339.11 113.94 341.318 115.86C342.374 116.724 342.854 117.684 342.758 118.74C342.662 119.7 342.23 120.66 341.462 121.62L336.854 127.092C335.222 129.012 333.062 129.156 330.374 127.524C328.166 125.892 325.622 124.5 322.742 123.348C319.958 122.196 317.03 121.62 313.958 121.62C310.79 121.62 308.246 122.244 306.326 123.492C304.502 124.74 303.59 126.18 303.59 127.812C303.59 129.444 304.262 130.836 305.606 131.988C306.95 133.044 309.206 133.86 312.374 134.436L323.75 136.596C329.894 137.748 334.934 139.956 338.87 143.22C342.902 146.388 344.918 151.092 344.918 157.332C344.918 161.748 343.574 165.732 340.886 169.284C338.294 172.74 334.694 175.476 330.086 177.492C325.478 179.508 320.102 180.516 313.958 180.516C307.91 180.516 302.678 179.7 298.262 178.068C293.846 176.34 290.246 174.42 287.462 172.308C284.774 170.292 283.382 168.468 283.286 166.836C283.19 165.204 283.862 163.812 285.302 162.66L290.63 158.34C291.974 157.284 293.174 156.9 294.23 157.188C295.286 157.476 296.246 158.004 297.11 158.772C299.414 160.788 302.006 162.516 304.886 163.956C307.862 165.3 311.174 165.972 314.822 165.972C318.566 165.972 321.35 165.3 323.174 163.956C324.998 162.516 325.91 160.884 325.91 159.06C325.91 157.044 324.95 155.556 323.03 154.596C321.206 153.636 318.47 152.82 314.822 152.148L303.734 149.844C298.166 148.692 293.654 146.388 290.198 142.932C286.742 139.38 285.014 134.82 285.014 129.252C285.014 125.028 286.214 121.284 288.614 118.02C291.014 114.66 294.422 112.02 298.838 110.1C303.254 108.084 308.438 107.076 314.39 107.076ZM372.674 111.828V147.828C372.674 152.82 373.922 156.9 376.418 160.068C379.01 163.14 382.946 164.676 388.226 164.676C393.314 164.676 397.25 163.14 400.034 160.068C402.818 156.9 404.21 152.916 404.21 148.116V111.828C404.21 111.06 404.498 110.436 405.074 109.956C405.746 109.38 406.418 109.092 407.09 109.092H419.762C420.626 109.092 421.346 109.38 421.922 109.956C422.498 110.532 422.786 111.252 422.786 112.116V175.62C422.786 176.388 422.498 177.06 421.922 177.636C421.346 178.212 420.626 178.5 419.762 178.5H407.09C406.418 178.5 405.746 178.26 405.074 177.78C404.498 177.204 404.21 176.532 404.21 175.764V170.292C402.098 173.268 399.314 175.716 395.858 177.636C392.498 179.556 388.082 180.516 382.61 180.516C373.778 180.516 366.818 177.78 361.73 172.308C356.642 166.836 354.098 159.732 354.098 150.996V111.828C354.098 111.06 354.386 110.436 354.962 109.956C355.634 109.38 356.354 109.092 357.122 109.092H369.65C370.418 109.092 371.09 109.38 371.666 109.956C372.338 110.436 372.674 111.06 372.674 111.828ZM471.366 108.228H473.382C474.15 108.228 474.87 108.468 475.542 108.948C476.31 109.428 476.694 110.388 476.694 111.828V124.212C476.694 125.652 476.262 126.612 475.398 127.092C474.534 127.572 473.814 127.812 473.238 127.812H469.782C465.174 127.812 461.574 129.108 458.982 131.7C456.486 134.292 455.238 138.564 455.238 144.516V175.764C455.238 176.532 454.902 177.204 454.23 177.78C453.654 178.26 452.982 178.5 452.214 178.5H439.542C438.774 178.5 438.102 178.212 437.526 177.636C436.95 177.06 436.662 176.388 436.662 175.62V112.116C436.662 111.252 436.95 110.532 437.526 109.956C438.102 109.38 438.774 109.092 439.542 109.092H451.494C452.262 109.092 452.934 109.38 453.51 109.956C454.086 110.436 454.374 111.06 454.374 111.828V118.452C456.198 115.38 458.55 112.932 461.43 111.108C464.406 109.188 467.718 108.228 471.366 108.228ZM518.298 107.076C525.498 107.076 531.738 108.708 537.018 111.972C542.298 115.14 546.378 119.364 549.258 124.644C552.234 129.924 553.722 135.636 553.722 141.78V145.236C553.722 146.1 553.482 146.868 553.002 147.54C552.618 148.116 551.754 148.404 550.41 148.404H500.874C501.354 153.3 503.322 157.236 506.778 160.212C510.234 163.188 514.314 164.676 519.018 164.676C522.666 164.676 525.738 164.052 528.234 162.804C530.826 161.556 533.178 159.732 535.29 157.332C535.77 156.756 536.298 156.372 536.874 156.18C537.546 155.892 538.266 156.036 539.034 156.612L548.106 162.948C548.874 163.524 549.258 164.244 549.258 165.108C549.354 165.876 549.162 166.548 548.682 167.124C545.802 170.772 541.962 173.94 537.162 176.628C532.458 179.22 526.266 180.516 518.586 180.516C511.386 180.516 505.002 178.932 499.434 175.764C493.866 172.5 489.498 168.132 486.33 162.66C483.258 157.092 481.722 150.9 481.722 144.084C481.722 137.172 483.258 130.932 486.33 125.364C489.498 119.796 493.818 115.38 499.29 112.116C504.858 108.756 511.194 107.076 518.298 107.076ZM535.434 136.596C534.57 131.796 532.506 128.196 529.242 125.796C525.978 123.3 522.378 122.052 518.442 122.052C514.314 122.052 510.666 123.396 507.498 126.084C504.33 128.676 502.266 132.18 501.306 136.596H535.434ZM590.015 107.076C596.639 107.076 602.207 108.084 606.719 110.1C611.327 112.02 614.735 113.94 616.943 115.86C617.999 116.724 618.479 117.684 618.383 118.74C618.287 119.7 617.855 120.66 617.087 121.62L612.479 127.092C610.847 129.012 608.687 129.156 605.999 127.524C603.791 125.892 601.247 124.5 598.367 123.348C595.583 122.196 592.655 121.62 589.583 121.62C586.415 121.62 583.871 122.244 581.951 123.492C580.127 124.74 579.215 126.18 579.215 127.812C579.215 129.444 579.887 130.836 581.231 131.988C582.575 133.044 584.831 133.86 587.999 134.436L599.375 136.596C605.519 137.748 610.559 139.956 614.495 143.22C618.527 146.388 620.543 151.092 620.543 157.332C620.543 161.748 619.199 165.732 616.511 169.284C613.919 172.74 610.319 175.476 605.711 177.492C601.103 179.508 595.727 180.516 589.583 180.516C583.535 180.516 578.303 179.7 573.887 178.068C569.471 176.34 565.871 174.42 563.087 172.308C560.399 170.292 559.007 168.468 558.911 166.836C558.815 165.204 559.487 163.812 560.927 162.66L566.255 158.34C567.599 157.284 568.799 156.9 569.855 157.188C570.911 157.476 571.871 158.004 572.735 158.772C575.039 160.788 577.631 162.516 580.511 163.956C583.487 165.3 586.799 165.972 590.447 165.972C594.191 165.972 596.975 165.3 598.799 163.956C600.623 162.516 601.535 160.884 601.535 159.06C601.535 157.044 600.575 155.556 598.655 154.596C596.831 153.636 594.095 152.82 590.447 152.148L579.359 149.844C573.791 148.692 569.279 146.388 565.823 142.932C562.367 139.38 560.639 134.82 560.639 129.252C560.639 125.028 561.839 121.284 564.239 118.02C566.639 114.66 570.047 112.02 574.463 110.1C578.879 108.084 584.063 107.076 590.015 107.076Z" fill="white"/>
<path fill-rule="evenodd" clip-rule="evenodd" d="M763.306 38.75C771.825 38.75 778.732 45.6564 778.732 54.1759V111.472C778.732 129.728 763.932 144.528 745.676 144.528H683.972C675.453 144.528 668.546 137.621 668.546 129.102C668.546 120.582 675.453 113.676 683.972 113.676H745.676C746.893 113.676 747.88 112.689 747.88 111.472V54.1759C747.88 45.6564 754.786 38.75 763.306 38.75Z" fill="#FF8F57"/>
<path fill-rule="evenodd" clip-rule="evenodd" d="M756.694 217.25C748.175 217.25 741.268 210.344 741.268 201.824L741.268 144.528C741.268 126.272 756.068 111.472 774.324 111.472L836.028 111.472C844.547 111.472 851.454 118.379 851.454 126.898C851.454 135.418 844.547 142.324 836.028 142.324L774.324 142.324C773.107 142.324 772.12 143.311 772.12 144.528L772.12 201.824C772.12 210.344 765.214 217.25 756.694 217.25Z" fill="#B80000"/>
</svg>
