<svg width="706" height="173" viewBox="0 0 706 173" fill="none" xmlns="http://www.w3.org/2000/svg">
<style>
.content {
fill: black;
}
@media (prefers-color-scheme: dark) {
.content {
fill: white;
}
}
</style>
<path d="M56.88 139.016C49.488 139.016 42.576 137.72 36.144 135.128C29.712 132.44 24.048 128.744 19.152 124.04C14.352 119.24 10.608 113.672 7.92 107.336C5.232 100.904 3.888 93.992 3.888 86.6C3.888 79.208 5.232 72.344 7.92 66.008C10.608 59.576 14.352 54.008 19.152 49.304C24.048 44.504 29.712 40.808 36.144 38.216C42.576 35.528 49.488 34.184 56.88 34.184C64.176 34.184 71.04 35.432 77.472 37.928C84 40.328 89.664 43.88 94.464 48.584C99.264 53.192 102.768 58.808 104.976 65.432C105.168 66.104 105.216 66.728 105.12 67.304C105.024 67.88 104.448 68.312 103.392 68.6L88.992 72.2C87.936 72.392 87.168 72.248 86.688 71.768C86.304 71.192 86.016 70.664 85.824 70.184C83.232 64.904 79.536 60.584 74.736 57.224C69.936 53.768 64.032 52.04 57.024 52.04C50.688 52.04 45.024 53.576 40.032 56.648C35.04 59.72 31.104 63.848 28.224 69.032C25.44 74.216 24.048 80.072 24.048 86.6C24.048 93.032 25.44 98.888 28.224 104.168C31.104 109.352 35.04 113.48 40.032 116.552C45.024 119.624 50.688 121.16 57.024 121.16C64.032 121.16 69.936 119.48 74.736 116.12C79.536 112.664 83.232 108.296 85.824 103.016C86.016 102.536 86.304 102.056 86.688 101.576C87.168 101 87.936 100.808 88.992 101L103.392 104.6C104.448 104.888 105.024 105.32 105.12 105.896C105.216 106.472 105.168 107.096 104.976 107.768C102.768 114.296 99.264 119.912 94.464 124.616C89.664 129.32 84 132.92 77.472 135.416C71.04 137.816 64.176 139.016 56.88 139.016ZM131.355 137C125.211 137 120.699 135.464 117.819 132.392C114.939 129.224 113.499 125 113.499 119.72V39.224C113.499 38.456 113.787 37.784 114.363 37.208C114.939 36.536 115.659 36.2 116.523 36.2H129.051C129.915 36.2 130.635 36.536 131.211 37.208C131.787 37.784 132.075 38.456 132.075 39.224V116.12C132.075 117.752 132.507 119.096 133.371 120.152C134.235 121.112 135.531 121.592 137.259 121.592H141.435C142.203 121.592 142.875 121.784 143.451 122.168C144.027 122.552 144.315 123.272 144.315 124.328V133.4C144.315 134.936 143.883 135.944 143.019 136.424C142.155 136.808 141.339 137 140.571 137H131.355ZM148.437 102.44C148.437 95.528 150.117 89.288 153.477 83.72C156.837 78.152 161.301 73.736 166.869 70.472C172.533 67.208 178.821 65.576 185.733 65.576C192.645 65.576 198.933 67.208 204.597 70.472C210.261 73.736 214.725 78.152 217.989 83.72C221.349 89.288 223.029 95.528 223.029 102.44C223.029 109.256 221.349 115.448 217.989 121.016C214.725 126.584 210.261 131 204.597 134.264C198.933 137.432 192.645 139.016 185.733 139.016C178.821 139.016 172.533 137.432 166.869 134.264C161.301 131 156.837 126.584 153.477 121.016C150.117 115.448 148.437 109.256 148.437 102.44ZM167.157 102.296C167.157 105.848 167.973 109.112 169.605 112.088C171.237 115.064 173.445 117.416 176.229 119.144C179.013 120.872 182.181 121.736 185.733 121.736C189.285 121.736 192.453 120.872 195.237 119.144C198.021 117.416 200.229 115.064 201.861 112.088C203.493 109.112 204.309 105.848 204.309 102.296C204.309 98.648 203.493 95.384 201.861 92.504C200.229 89.528 198.021 87.176 195.237 85.448C192.453 83.72 189.285 82.856 185.733 82.856C182.181 82.856 179.013 83.72 176.229 85.448C173.445 87.176 171.237 89.528 169.605 92.504C167.973 95.384 167.157 98.648 167.157 102.296ZM260.39 65.576C267.014 65.576 272.582 66.584 277.094 68.6C281.702 70.52 285.11 72.44 287.318 74.36C288.374 75.224 288.854 76.184 288.758 77.24C288.662 78.2 288.23 79.16 287.462 80.12L282.854 85.592C281.222 87.512 279.062 87.656 276.374 86.024C274.166 84.392 271.622 83 268.742 81.848C265.958 80.696 263.03 80.12 259.958 80.12C256.79 80.12 254.246 80.744 252.326 81.992C250.502 83.24 249.59 84.68 249.59 86.312C249.59 87.944 250.262 89.336 251.606 90.488C252.95 91.544 255.206 92.36 258.374 92.936L269.75 95.096C275.894 96.248 280.934 98.456 284.87 101.72C288.902 104.888 290.918 109.592 290.918 115.832C290.918 120.248 289.574 124.232 286.886 127.784C284.294 131.24 280.694 133.976 276.086 135.992C271.478 138.008 266.102 139.016 259.958 139.016C253.91 139.016 248.678 138.2 244.262 136.568C239.846 134.84 236.246 132.92 233.462 130.808C230.774 128.792 229.382 126.968 229.286 125.336C229.19 123.704 229.862 122.312 231.302 121.16L236.63 116.84C237.974 115.784 239.174 115.4 240.23 115.688C241.286 115.976 242.246 116.504 243.11 117.272C245.414 119.288 248.006 121.016 250.886 122.456C253.862 123.8 257.174 124.472 260.822 124.472C264.566 124.472 267.35 123.8 269.174 122.456C270.998 121.016 271.91 119.384 271.91 117.56C271.91 115.544 270.95 114.056 269.03 113.096C267.206 112.136 264.47 111.32 260.822 110.648L249.734 108.344C244.166 107.192 239.654 104.888 236.198 101.432C232.742 97.88 231.014 93.32 231.014 87.752C231.014 83.528 232.214 79.784 234.614 76.52C237.014 73.16 240.422 70.52 244.838 68.6C249.254 66.584 254.438 65.576 260.39 65.576ZM318.674 70.328V106.328C318.674 111.32 319.922 115.4 322.418 118.568C325.01 121.64 328.946 123.176 334.226 123.176C339.314 123.176 343.25 121.64 346.034 118.568C348.818 115.4 350.21 111.416 350.21 106.616V70.328C350.21 69.56 350.498 68.936 351.074 68.456C351.746 67.88 352.418 67.592 353.09 67.592H365.762C366.626 67.592 367.346 67.88 367.922 68.456C368.498 69.032 368.786 69.752 368.786 70.616V134.12C368.786 134.888 368.498 135.56 367.922 136.136C367.346 136.712 366.626 137 365.762 137H353.09C352.418 137 351.746 136.76 351.074 136.28C350.498 135.704 350.21 135.032 350.21 134.264V128.792C348.098 131.768 345.314 134.216 341.858 136.136C338.498 138.056 334.082 139.016 328.61 139.016C319.778 139.016 312.818 136.28 307.73 130.808C302.642 125.336 300.098 118.232 300.098 109.496V70.328C300.098 69.56 300.386 68.936 300.962 68.456C301.634 67.88 302.354 67.592 303.122 67.592H315.65C316.418 67.592 317.09 67.88 317.666 68.456C318.338 68.936 318.674 69.56 318.674 70.328ZM417.366 66.728H419.382C420.15 66.728 420.87 66.968 421.542 67.448C422.31 67.928 422.694 68.888 422.694 70.328V82.712C422.694 84.152 422.262 85.112 421.398 85.592C420.534 86.072 419.814 86.312 419.238 86.312H415.782C411.174 86.312 407.574 87.608 404.982 90.2C402.486 92.792 401.238 97.064 401.238 103.016V134.264C401.238 135.032 400.902 135.704 400.23 136.28C399.654 136.76 398.982 137 398.214 137H385.542C384.774 137 384.102 136.712 383.526 136.136C382.95 135.56 382.662 134.888 382.662 134.12V70.616C382.662 69.752 382.95 69.032 383.526 68.456C384.102 67.88 384.774 67.592 385.542 67.592H397.494C398.262 67.592 398.934 67.88 399.51 68.456C400.086 68.936 400.374 69.56 400.374 70.328V76.952C402.198 73.88 404.55 71.432 407.43 69.608C410.406 67.688 413.718 66.728 417.366 66.728ZM464.298 65.576C471.498 65.576 477.738 67.208 483.018 70.472C488.298 73.64 492.378 77.864 495.258 83.144C498.234 88.424 499.722 94.136 499.722 100.28V103.736C499.722 104.6 499.482 105.368 499.002 106.04C498.618 106.616 497.754 106.904 496.41 106.904H446.874C447.354 111.8 449.322 115.736 452.778 118.712C456.234 121.688 460.314 123.176 465.018 123.176C468.666 123.176 471.738 122.552 474.234 121.304C476.826 120.056 479.178 118.232 481.29 115.832C481.77 115.256 482.298 114.872 482.874 114.68C483.546 114.392 484.266 114.536 485.034 115.112L494.106 121.448C494.874 122.024 495.258 122.744 495.258 123.608C495.354 124.376 495.162 125.048 494.682 125.624C491.802 129.272 487.962 132.44 483.162 135.128C478.458 137.72 472.266 139.016 464.586 139.016C457.386 139.016 451.002 137.432 445.434 134.264C439.866 131 435.498 126.632 432.33 121.16C429.258 115.592 427.722 109.4 427.722 102.584C427.722 95.672 429.258 89.432 432.33 83.864C435.498 78.296 439.818 73.88 445.29 70.616C450.858 67.256 457.194 65.576 464.298 65.576ZM481.434 95.096C480.57 90.296 478.506 86.696 475.242 84.296C471.978 81.8 468.378 80.552 464.442 80.552C460.314 80.552 456.666 81.896 453.498 84.584C450.33 87.176 448.266 90.68 447.306 95.096H481.434ZM536.015 65.576C542.639 65.576 548.207 66.584 552.719 68.6C557.327 70.52 560.735 72.44 562.943 74.36C563.999 75.224 564.479 76.184 564.383 77.24C564.287 78.2 563.855 79.16 563.087 80.12L558.479 85.592C556.847 87.512 554.687 87.656 551.999 86.024C549.791 84.392 547.247 83 544.367 81.848C541.583 80.696 538.655 80.12 535.583 80.12C532.415 80.12 529.871 80.744 527.951 81.992C526.127 83.24 525.215 84.68 525.215 86.312C525.215 87.944 525.887 89.336 527.231 90.488C528.575 91.544 530.831 92.36 533.999 92.936L545.375 95.096C551.519 96.248 556.559 98.456 560.495 101.72C564.527 104.888 566.543 109.592 566.543 115.832C566.543 120.248 565.199 124.232 562.511 127.784C559.919 131.24 556.319 133.976 551.711 135.992C547.103 138.008 541.727 139.016 535.583 139.016C529.535 139.016 524.303 138.2 519.887 136.568C515.471 134.84 511.871 132.92 509.087 130.808C506.399 128.792 505.007 126.968 504.911 125.336C504.815 123.704 505.487 122.312 506.927 121.16L512.255 116.84C513.599 115.784 514.799 115.4 515.855 115.688C516.911 115.976 517.871 116.504 518.735 117.272C521.039 119.288 523.631 121.016 526.511 122.456C529.487 123.8 532.799 124.472 536.447 124.472C540.191 124.472 542.975 123.8 544.799 122.456C546.623 121.016 547.535 119.384 547.535 117.56C547.535 115.544 546.575 114.056 544.655 113.096C542.831 112.136 540.095 111.32 536.447 110.648L525.359 108.344C519.791 107.192 515.279 104.888 511.823 101.432C508.367 97.88 506.639 93.32 506.639 87.752C506.639 83.528 507.839 79.784 510.239 76.52C512.639 73.16 516.047 70.52 520.463 68.6C524.879 66.584 530.063 65.576 536.015 65.576Z" class="content"/>
<path fill-rule="evenodd" clip-rule="evenodd" d="M643.653 41.875C647.913 41.875 651.366 45.3282 651.366 49.588V78.2361C651.366 87.3641 643.966 94.7639 634.838 94.7639H603.986C599.726 94.7639 596.273 91.3107 596.273 87.0509C596.273 82.7912 599.726 79.338 603.986 79.338H634.838C635.447 79.338 635.94 78.8446 635.94 78.2361V49.588C635.94 45.3282 639.393 41.875 643.653 41.875Z" fill="#FF8F57"/>
<path fill-rule="evenodd" clip-rule="evenodd" d="M640.347 131.125C636.087 131.125 632.634 127.672 632.634 123.412L632.634 94.7639C632.634 85.6358 640.034 78.2361 649.162 78.2361L680.014 78.2361C684.274 78.2361 687.727 81.6893 687.727 85.9491C687.727 90.2088 684.274 93.662 680.014 93.662L649.162 93.662C648.553 93.662 648.06 94.1554 648.06 94.7639L648.06 123.412C648.06 127.672 644.607 131.125 640.347 131.125Z" fill="#B80000"/>
</svg>
